<?xml version="1.0" encoding="UTF-8"?>
<svg xmlns="http://www.w3.org/2000/svg" xmlns:xlink="http://www.w3.org/1999/xlink" width="3000" height="3000" viewBox="0 0 3000 3000">
<defs>
<clipPath id="clip-0">
<path clip-rule="nonzero" d="M 1105 256 L 1870 256 L 1870 875 L 1105 875 Z M 1105 256 "/>
</clipPath>
<clipPath id="clip-1">
<path clip-rule="nonzero" d="M 1488.480469 874.769531 C 1478.800781 874.648438 1469.519531 873.730469 1460.449219 871.980469 C 1423.511719 865.820312 1396.570312 851.398438 1377.410156 827.898438 L 1375.359375 825.378906 C 1355.851562 800.679688 1346.308594 774.339844 1346.269531 744.898438 C 1346.269531 732.578125 1348.058594 719.988281 1351.519531 707.519531 L 1354.269531 697.878906 C 1355.078125 695.921875 1356.539062 692.320312 1358.230469 688.808594 L 1358.449219 688.25 L 1359.589844 685.789062 C 1359.46875 686.019531 1359.320312 686.28125 1359.191406 686.519531 L 1359.960938 685.058594 L 1360.390625 684.179688 C 1360.351562 684.289062 1360.308594 684.378906 1360.261719 684.46875 L 1361.828125 681.539062 C 1372.800781 661.089844 1389.679688 641.058594 1406.03125 621.648438 C 1412.828125 613.570312 1419.621094 605.480469 1426.070312 597.371094 C 1427.210938 595.761719 1428.488281 593.851562 1430.410156 590.429688 C 1431.359375 588.878906 1432.5 586.828125 1433.640625 584.769531 L 1435.25 581.839844 C 1441.738281 569.921875 1451.089844 551.351562 1459.898438 528.609375 C 1485.269531 458.359375 1479.101562 403.25 1477.660156 392.941406 C 1476.011719 384.460938 1473.859375 376.828125 1471.210938 370.078125 L 1500.011719 370.078125 C 1498.101562 374.820312 1496.460938 379.988281 1495.089844 385.5 C 1493.359375 395 1492.410156 403.71875 1491.800781 413.570312 C 1487.929688 495.390625 1532.261719 572.121094 1534.128906 575.351562 L 1536.179688 578.371094 C 1538.859375 582.289062 1541.511719 586.179688 1544.480469 590.058594 C 1552.519531 600.660156 1561.28125 611.058594 1570.128906 621.511719 C 1583.300781 637.140625 1596.890625 653.25 1607.339844 669.539062 L 1610.71875 674.828125 C 1616.621094 683.628906 1620.988281 693.308594 1623.960938 703.589844 C 1626.929688 714.558594 1628.429688 724.398438 1628.769531 734.261719 L 1628.851562 737.558594 C 1628.878906 746.191406 1628.328125 751.988281 1627.789062 755.988281 L 1627.160156 760.140625 L 1627.070312 760.75 L 1626.53125 763.351562 C 1623.730469 780.238281 1616.738281 805.378906 1599.859375 826.769531 C 1580.691406 850.910156 1553.390625 865.699219 1516.410156 871.898438 C 1506.769531 873.730469 1497.558594 874.648438 1488.480469 874.769531 M 1766.988281 874.648438 L 1767.019531 595.039062 C 1766.839844 486.398438 1705.351562 389.890625 1606.609375 343.21875 C 1603.269531 341.769531 1576.519531 330.128906 1552.558594 330.128906 C 1544.75 330.128906 1537.691406 331.371094 1531.601562 333.828125 L 1530.46875 334.28125 L 1529.371094 334.859375 C 1523.03125 338.351562 1517.46875 342.960938 1512.628906 348.609375 C 1528.050781 305.609375 1554.800781 276.851562 1592.410156 262.929688 C 1604.058594 258.96875 1615.890625 256.671875 1628.148438 256.671875 C 1671.21875 256.671875 1707.328125 284.160156 1707.691406 284.441406 C 1809.070312 356.148438 1869.230469 472.191406 1869.289062 595.039062 L 1869.289062 825.480469 L 1766.988281 874.648438 M 1208.140625 874.648438 L 1105.878906 825.480469 L 1105.929688 595.039062 C 1105.929688 469.21875 1168.238281 351.550781 1272.589844 280.289062 C 1283.230469 273.390625 1312.539062 256.769531 1346.050781 256.769531 C 1354.039062 256.769531 1361.890625 257.730469 1369.378906 259.609375 L 1370.960938 260.109375 C 1374.480469 261.109375 1376.320312 261.738281 1378.140625 262.46875 C 1416.609375 276.300781 1443.789062 305.289062 1459.351562 348.839844 C 1457.75 346.828125 1456.058594 345.011719 1454.28125 343.269531 C 1449.890625 338.019531 1439.070312 330.128906 1419.871094 330.128906 C 1403.320312 330.128906 1385.53125 335.921875 1373.53125 340.769531 C 1272.871094 386.269531 1208.269531 485.929688 1208.140625 594.980469 L 1208.140625 874.648438 "/>
</clipPath>
<clipPath id="clip-2">
<path clip-rule="nonzero" d="M 1488.480469 874.769531 C 1478.800781 874.648438 1469.519531 873.730469 1460.449219 871.980469 C 1423.511719 865.820312 1396.570312 851.398438 1377.410156 827.898438 L 1375.359375 825.378906 C 1355.851562 800.679688 1346.308594 774.339844 1346.269531 744.898438 C 1346.269531 732.578125 1348.058594 719.988281 1351.519531 707.519531 L 1354.269531 697.878906 C 1355.078125 695.921875 1356.539062 692.320312 1358.230469 688.808594 L 1358.449219 688.25 L 1359.589844 685.789062 C 1359.46875 686.019531 1359.320312 686.28125 1359.191406 686.519531 L 1359.960938 685.058594 L 1360.390625 684.179688 C 1360.351562 684.289062 1360.308594 684.378906 1360.261719 684.46875 L 1361.828125 681.539062 C 1372.800781 661.089844 1389.679688 641.058594 1406.03125 621.648438 C 1412.828125 613.570312 1419.621094 605.480469 1426.070312 597.371094 C 1427.210938 595.761719 1428.488281 593.851562 1430.410156 590.429688 C 1431.359375 588.878906 1432.5 586.828125 1433.640625 584.769531 L 1435.25 581.839844 C 1441.738281 569.921875 1451.089844 551.351562 1459.898438 528.609375 C 1485.269531 458.359375 1479.101562 403.25 1477.660156 392.941406 C 1476.011719 384.460938 1473.859375 376.828125 1471.210938 370.078125 L 1500.011719 370.078125 C 1498.101562 374.820312 1496.460938 379.988281 1495.089844 385.5 C 1493.359375 395 1492.410156 403.71875 1491.800781 413.570312 C 1487.929688 495.390625 1532.261719 572.121094 1534.128906 575.351562 L 1536.179688 578.371094 C 1538.859375 582.289062 1541.511719 586.179688 1544.480469 590.058594 C 1552.519531 600.660156 1561.28125 611.058594 1570.128906 621.511719 C 1583.300781 637.140625 1596.890625 653.25 1607.339844 669.539062 L 1610.71875 674.828125 C 1616.621094 683.628906 1620.988281 693.308594 1623.960938 703.589844 C 1626.929688 714.558594 1628.429688 724.398438 1628.769531 734.261719 L 1628.851562 737.558594 C 1628.878906 746.191406 1628.328125 751.988281 1627.789062 755.988281 L 1627.160156 760.140625 L 1627.070312 760.75 L 1626.53125 763.351562 C 1623.730469 780.238281 1616.738281 805.378906 1599.859375 826.769531 C 1580.691406 850.910156 1553.390625 865.699219 1516.410156 871.898438 C 1506.769531 873.730469 1497.558594 874.648438 1488.480469 874.769531 M 1766.988281 874.648438 L 1767.019531 595.039062 C 1766.839844 486.398438 1705.351562 389.890625 1606.609375 343.21875 C 1603.269531 341.769531 1576.519531 330.128906 1552.558594 330.128906 C 1544.75 330.128906 1537.691406 331.371094 1531.601562 333.828125 L 1530.46875 334.28125 L 1529.371094 334.859375 C 1523.03125 338.351562 1517.46875 342.960938 1512.628906 348.609375 C 1528.050781 305.609375 1554.800781 276.851562 1592.410156 262.929688 C 1604.058594 258.96875 1615.890625 256.671875 1628.148438 256.671875 C 1671.21875 256.671875 1707.328125 284.160156 1707.691406 284.441406 C 1809.070312 356.148438 1869.230469 472.191406 1869.289062 595.039062 L 1869.289062 825.480469 L 1766.988281 874.648438 M 1208.140625 874.648438 L 1105.878906 825.480469 L 1105.929688 595.039062 C 1105.929688 469.21875 1168.238281 351.550781 1272.589844 280.289062 C 1283.230469 273.390625 1312.539062 256.769531 1346.050781 256.769531 C 1354.039062 256.769531 1361.890625 257.730469 1369.378906 259.609375 L 1370.960938 260.109375 C 1374.480469 261.109375 1376.320312 261.738281 1378.140625 262.46875 C 1416.609375 276.300781 1443.789062 305.289062 1459.351562 348.839844 C 1457.75 346.828125 1456.058594 345.011719 1454.28125 343.269531 C 1449.890625 338.019531 1439.070312 330.128906 1419.871094 330.128906 C 1403.320312 330.128906 1385.53125 335.921875 1373.53125 340.769531 C 1272.871094 386.269531 1208.269531 485.929688 1208.140625 594.980469 L 1208.140625 874.648438 "/>
</clipPath>
<linearGradient id="linear-pattern-0" gradientUnits="userSpaceOnUse" x1="-0.0559198" y1="0" x2="1.248383" y2="0" gradientTransform="matrix(-0.00002071, -473.893, 473.893, -0.00002071, 1487.59, 848.27)">
<stop offset="0" stop-color="rgb(48.236084%, 83.200073%, 93.595886%)" stop-opacity="1"/>
<stop offset="0.03125" stop-color="rgb(48.236084%, 83.200073%, 93.595886%)" stop-opacity="1"/>
<stop offset="0.046875" stop-color="rgb(48.042297%, 83.137512%, 93.586731%)" stop-opacity="1"/>
<stop offset="0.0507812" stop-color="rgb(47.471619%, 82.954407%, 93.559265%)" stop-opacity="1"/>
<stop offset="0.0546875" stop-color="rgb(47.093201%, 82.833862%, 93.540955%)" stop-opacity="1"/>
<stop offset="0.0585938" stop-color="rgb(46.716309%, 82.711792%, 93.522644%)" stop-opacity="1"/>
<stop offset="0.0625" stop-color="rgb(46.339417%, 82.591248%, 93.505859%)" stop-opacity="1"/>
<stop offset="0.0664062" stop-color="rgb(46.011353%, 82.49054%, 93.569946%)" stop-opacity="1"/>
<stop offset="0.0703125" stop-color="rgb(45.683289%, 82.388306%, 93.632507%)" stop-opacity="1"/>
<stop offset="0.0742188" stop-color="rgb(45.431519%, 82.318115%, 93.82019%)" stop-opacity="1"/>
<stop offset="0.078125" stop-color="rgb(45.179749%, 82.246399%, 94.007874%)" stop-opacity="1"/>
<stop offset="0.0820312" stop-color="rgb(44.927979%, 82.164001%, 93.943787%)" stop-opacity="1"/>
<stop offset="0.0859375" stop-color="rgb(44.676208%, 82.080078%, 93.8797%)" stop-opacity="1"/>
<stop offset="0.0898438" stop-color="rgb(44.462585%, 81.985474%, 93.840027%)" stop-opacity="1"/>
<stop offset="0.09375" stop-color="rgb(44.248962%, 81.890869%, 93.798828%)" stop-opacity="1"/>
<stop offset="0.0976562" stop-color="rgb(44.13147%, 81.770325%, 93.943787%)" stop-opacity="1"/>
<stop offset="0.101562" stop-color="rgb(44.013977%, 81.64978%, 94.085693%)" stop-opacity="1"/>
<stop offset="0.105469" stop-color="rgb(43.806458%, 81.491089%, 94.009399%)" stop-opacity="1"/>
<stop offset="0.109375" stop-color="rgb(43.597412%, 81.330872%, 93.93158%)" stop-opacity="1"/>
<stop offset="0.113281" stop-color="rgb(43.336487%, 81.138611%, 93.79425%)" stop-opacity="1"/>
<stop offset="0.117188" stop-color="rgb(43.074036%, 80.94635%, 93.658447%)" stop-opacity="1"/>
<stop offset="0.121094" stop-color="rgb(42.715454%, 80.654907%, 93.640137%)" stop-opacity="1"/>
<stop offset="0.125" stop-color="rgb(42.356873%, 80.363464%, 93.6203%)" stop-opacity="1"/>
<stop offset="0.128906" stop-color="rgb(42.146301%, 80.174255%, 93.638611%)" stop-opacity="1"/>
<stop offset="0.132813" stop-color="rgb(41.93573%, 79.986572%, 93.655396%)" stop-opacity="1"/>
<stop offset="0.140625" stop-color="rgb(41.807556%, 79.855347%, 93.688965%)" stop-opacity="1"/>
<stop offset="0.144531" stop-color="rgb(41.323853%, 79.431152%, 93.603516%)" stop-opacity="1"/>
<stop offset="0.148438" stop-color="rgb(40.966797%, 79.139709%, 93.486023%)" stop-opacity="1"/>
<stop offset="0.152344" stop-color="rgb(40.734863%, 78.889465%, 93.421936%)" stop-opacity="1"/>
<stop offset="0.15625" stop-color="rgb(40.50293%, 78.639221%, 93.357849%)" stop-opacity="1"/>
<stop offset="0.160156" stop-color="rgb(40.397644%, 78.431702%, 93.35022%)" stop-opacity="1"/>
<stop offset="0.164062" stop-color="rgb(40.292358%, 78.224182%, 93.341064%)" stop-opacity="1"/>
<stop offset="0.167969" stop-color="rgb(39.944458%, 78.022766%, 93.273926%)" stop-opacity="1"/>
<stop offset="0.171875" stop-color="rgb(39.596558%, 77.82135%, 93.208313%)" stop-opacity="1"/>
<stop offset="0.175781" stop-color="rgb(39.335632%, 77.584839%, 93.109131%)" stop-opacity="1"/>
<stop offset="0.179688" stop-color="rgb(39.074707%, 77.349854%, 93.006897%)" stop-opacity="1"/>
<stop offset="0.183594" stop-color="rgb(38.981628%, 77.053833%, 92.854309%)" stop-opacity="1"/>
<stop offset="0.1875" stop-color="rgb(38.887024%, 76.757812%, 92.700195%)" stop-opacity="1"/>
<stop offset="0.191406" stop-color="rgb(38.676453%, 76.574707%, 92.62085%)" stop-opacity="1"/>
<stop offset="0.195312" stop-color="rgb(38.46283%, 76.38855%, 92.541504%)" stop-opacity="1"/>
<stop offset="0.199219" stop-color="rgb(38.261414%, 76.217651%, 92.469788%)" stop-opacity="1"/>
<stop offset="0.203125" stop-color="rgb(38.059998%, 76.045227%, 92.396545%)" stop-opacity="1"/>
<stop offset="0.207031" stop-color="rgb(37.957764%, 75.839233%, 92.29126%)" stop-opacity="1"/>
<stop offset="0.210937" stop-color="rgb(37.854004%, 75.631714%, 92.1875%)" stop-opacity="1"/>
<stop offset="0.214844" stop-color="rgb(37.658691%, 75.462341%, 92.179871%)" stop-opacity="1"/>
<stop offset="0.21875" stop-color="rgb(37.460327%, 75.292969%, 92.170715%)" stop-opacity="1"/>
<stop offset="0.222656" stop-color="rgb(37.226868%, 75.114441%, 92.173767%)" stop-opacity="1"/>
<stop offset="0.226562" stop-color="rgb(36.993408%, 74.935913%, 92.175293%)" stop-opacity="1"/>
<stop offset="0.230469" stop-color="rgb(36.779785%, 74.610901%, 92.015076%)" stop-opacity="1"/>
<stop offset="0.234375" stop-color="rgb(36.566162%, 74.285889%, 91.854858%)" stop-opacity="1"/>
<stop offset="0.238281" stop-color="rgb(36.413574%, 74.082947%, 91.757202%)" stop-opacity="1"/>
<stop offset="0.242188" stop-color="rgb(36.25946%, 73.878479%, 91.65802%)" stop-opacity="1"/>
<stop offset="0.25" stop-color="rgb(36.141968%, 73.750305%, 91.598511%)" stop-opacity="1"/>
<stop offset="0.253906" stop-color="rgb(35.699463%, 73.181152%, 91.323853%)" stop-opacity="1"/>
<stop offset="0.257812" stop-color="rgb(35.375977%, 72.743225%, 91.108704%)" stop-opacity="1"/>
<stop offset="0.261719" stop-color="rgb(35.096741%, 72.444153%, 91.011047%)" stop-opacity="1"/>
<stop offset="0.265625" stop-color="rgb(34.815979%, 72.145081%, 90.911865%)" stop-opacity="1"/>
<stop offset="0.269531" stop-color="rgb(34.58252%, 71.99707%, 90.940857%)" stop-opacity="1"/>
<stop offset="0.273438" stop-color="rgb(34.34906%, 71.84906%, 90.968323%)" stop-opacity="1"/>
<stop offset="0.28125" stop-color="rgb(34.228516%, 71.728516%, 90.837097%)" stop-opacity="1"/>
<stop offset="0.285156" stop-color="rgb(33.961487%, 71.420288%, 90.653992%)" stop-opacity="1"/>
<stop offset="0.289062" stop-color="rgb(33.816528%, 71.234131%, 90.600586%)" stop-opacity="1"/>
<stop offset="0.292969" stop-color="rgb(33.607483%, 70.932007%, 90.707397%)" stop-opacity="1"/>
<stop offset="0.296875" stop-color="rgb(33.399963%, 70.628357%, 90.811157%)" stop-opacity="1"/>
<stop offset="0.304688" stop-color="rgb(33.270264%, 70.474243%, 90.718079%)" stop-opacity="1"/>
<stop offset="0.3125" stop-color="rgb(33.009338%, 70.15686%, 90.498352%)" stop-opacity="1"/>
<stop offset="0.316406" stop-color="rgb(32.669067%, 69.68689%, 90.299988%)" stop-opacity="1"/>
<stop offset="0.320312" stop-color="rgb(32.463074%, 69.381714%, 90.226746%)" stop-opacity="1"/>
<stop offset="0.324219" stop-color="rgb(32.333374%, 69.154358%, 90.193176%)" stop-opacity="1"/>
<stop offset="0.328125" stop-color="rgb(32.202148%, 68.927002%, 90.156555%)" stop-opacity="1"/>
<stop offset="0.332031" stop-color="rgb(32.092285%, 68.722534%, 90.12146%)" stop-opacity="1"/>
<stop offset="0.335938" stop-color="rgb(31.982422%, 68.516541%, 90.084839%)" stop-opacity="1"/>
<stop offset="0.339844" stop-color="rgb(31.77948%, 68.212891%, 89.924622%)" stop-opacity="1"/>
<stop offset="0.34375" stop-color="rgb(31.575012%, 67.907715%, 89.764404%)" stop-opacity="1"/>
<stop offset="0.347656" stop-color="rgb(31.503296%, 67.686462%, 89.639282%)" stop-opacity="1"/>
<stop offset="0.351562" stop-color="rgb(31.43158%, 67.463684%, 89.51416%)" stop-opacity="1"/>
<stop offset="0.355469" stop-color="rgb(31.455994%, 67.300415%, 89.414978%)" stop-opacity="1"/>
<stop offset="0.359375" stop-color="rgb(31.481934%, 67.13562%, 89.31427%)" stop-opacity="1"/>
<stop offset="0.363281" stop-color="rgb(31.427002%, 66.703796%, 89.0625%)" stop-opacity="1"/>
<stop offset="0.367188" stop-color="rgb(31.37207%, 66.271973%, 88.81073%)" stop-opacity="1"/>
<stop offset="0.371094" stop-color="rgb(31.257629%, 65.864563%, 88.578796%)" stop-opacity="1"/>
<stop offset="0.375" stop-color="rgb(31.143188%, 65.458679%, 88.346863%)" stop-opacity="1"/>
<stop offset="0.378906" stop-color="rgb(30.957031%, 65.081787%, 88.139343%)" stop-opacity="1"/>
<stop offset="0.382812" stop-color="rgb(30.7724%, 64.706421%, 87.930298%)" stop-opacity="1"/>
<stop offset="0.386719" stop-color="rgb(30.682373%, 64.428711%, 87.773132%)" stop-opacity="1"/>
<stop offset="0.390625" stop-color="rgb(30.592346%, 64.151001%, 87.614441%)" stop-opacity="1"/>
<stop offset="0.394531" stop-color="rgb(30.465698%, 63.929749%, 87.492371%)" stop-opacity="1"/>
<stop offset="0.398438" stop-color="rgb(30.335999%, 63.708496%, 87.3703%)" stop-opacity="1"/>
<stop offset="0.402344" stop-color="rgb(30.111694%, 63.575745%, 87.310791%)" stop-opacity="1"/>
<stop offset="0.40625" stop-color="rgb(29.88739%, 63.444519%, 87.251282%)" stop-opacity="1"/>
<stop offset="0.410156" stop-color="rgb(29.800415%, 63.085938%, 87.042236%)" stop-opacity="1"/>
<stop offset="0.414062" stop-color="rgb(29.711914%, 62.727356%, 86.834717%)" stop-opacity="1"/>
<stop offset="0.417969" stop-color="rgb(29.652405%, 62.379456%, 86.628723%)" stop-opacity="1"/>
<stop offset="0.421875" stop-color="rgb(29.589844%, 62.030029%, 86.422729%)" stop-opacity="1"/>
<stop offset="0.429688" stop-color="rgb(29.486084%, 61.92627%, 86.367798%)" stop-opacity="1"/>
<stop offset="0.433594" stop-color="rgb(29.30603%, 61.561584%, 86.161804%)" stop-opacity="1"/>
<stop offset="0.4375" stop-color="rgb(29.229736%, 61.300659%, 86.010742%)" stop-opacity="1"/>
<stop offset="0.441406" stop-color="rgb(29.168701%, 60.972595%, 85.81543%)" stop-opacity="1"/>
<stop offset="0.445312" stop-color="rgb(29.104614%, 60.643005%, 85.620117%)" stop-opacity="1"/>
<stop offset="0.449219" stop-color="rgb(29.031372%, 60.385132%, 85.469055%)" stop-opacity="1"/>
<stop offset="0.453125" stop-color="rgb(28.955078%, 60.127258%, 85.317993%)" stop-opacity="1"/>
<stop offset="0.457031" stop-color="rgb(28.823853%, 59.814453%, 85.136414%)" stop-opacity="1"/>
<stop offset="0.460938" stop-color="rgb(28.694153%, 59.501648%, 84.95636%)" stop-opacity="1"/>
<stop offset="0.464844" stop-color="rgb(28.517151%, 59.144592%, 84.751892%)" stop-opacity="1"/>
<stop offset="0.46875" stop-color="rgb(28.341675%, 58.789062%, 84.547424%)" stop-opacity="1"/>
<stop offset="0.472656" stop-color="rgb(28.268433%, 58.534241%, 84.396362%)" stop-opacity="1"/>
<stop offset="0.476562" stop-color="rgb(28.19519%, 58.279419%, 84.243774%)" stop-opacity="1"/>
<stop offset="0.480469" stop-color="rgb(28.07312%, 58.016968%, 84.092712%)" stop-opacity="1"/>
<stop offset="0.484375" stop-color="rgb(27.95105%, 57.752991%, 83.938599%)" stop-opacity="1"/>
<stop offset="0.488281" stop-color="rgb(27.761841%, 57.479858%, 83.784485%)" stop-opacity="1"/>
<stop offset="0.492187" stop-color="rgb(27.574158%, 57.206726%, 83.628845%)" stop-opacity="1"/>
<stop offset="0.5" stop-color="rgb(27.462769%, 57.089233%, 83.564758%)" stop-opacity="1"/>
<stop offset="0.503906" stop-color="rgb(27.264404%, 56.799316%, 83.399963%)" stop-opacity="1"/>
<stop offset="0.507812" stop-color="rgb(27.177429%, 56.628418%, 83.299255%)" stop-opacity="1"/>
<stop offset="0.511719" stop-color="rgb(27.122498%, 56.303406%, 83.100891%)" stop-opacity="1"/>
<stop offset="0.515625" stop-color="rgb(27.067566%, 55.978394%, 82.902527%)" stop-opacity="1"/>
<stop offset="0.519531" stop-color="rgb(27.001953%, 55.712891%, 82.74231%)" stop-opacity="1"/>
<stop offset="0.523438" stop-color="rgb(26.934814%, 55.445862%, 82.580566%)" stop-opacity="1"/>
<stop offset="0.527344" stop-color="rgb(26.864624%, 55.213928%, 82.440186%)" stop-opacity="1"/>
<stop offset="0.53125" stop-color="rgb(26.791382%, 54.983521%, 82.301331%)" stop-opacity="1"/>
<stop offset="0.535156" stop-color="rgb(26.707458%, 54.812622%, 82.200623%)" stop-opacity="1"/>
<stop offset="0.539062" stop-color="rgb(26.623535%, 54.641724%, 82.098389%)" stop-opacity="1"/>
<stop offset="0.542969" stop-color="rgb(26.486206%, 54.364014%, 81.933594%)" stop-opacity="1"/>
<stop offset="0.546875" stop-color="rgb(26.347351%, 54.084778%, 81.767273%)" stop-opacity="1"/>
<stop offset="0.550781" stop-color="rgb(26.197815%, 53.770447%, 81.57959%)" stop-opacity="1"/>
<stop offset="0.554688" stop-color="rgb(26.046753%, 53.457642%, 81.391907%)" stop-opacity="1"/>
<stop offset="0.5625" stop-color="rgb(26.063538%, 53.382874%, 81.343079%)" stop-opacity="1"/>
<stop offset="0.566406" stop-color="rgb(25.999451%, 53.094482%, 81.166077%)" stop-opacity="1"/>
<stop offset="0.570312" stop-color="rgb(25.918579%, 52.882385%, 81.036377%)" stop-opacity="1"/>
<stop offset="0.574219" stop-color="rgb(25.753784%, 52.549744%, 80.836487%)" stop-opacity="1"/>
<stop offset="0.578125" stop-color="rgb(25.590515%, 52.217102%, 80.635071%)" stop-opacity="1"/>
<stop offset="0.582031" stop-color="rgb(25.537109%, 51.902771%, 80.438232%)" stop-opacity="1"/>
<stop offset="0.585938" stop-color="rgb(25.485229%, 51.58844%, 80.24292%)" stop-opacity="1"/>
<stop offset="0.589844" stop-color="rgb(25.416565%, 51.368713%, 80.105591%)" stop-opacity="1"/>
<stop offset="0.59375" stop-color="rgb(25.346375%, 51.148987%, 79.969788%)" stop-opacity="1"/>
<stop offset="0.601562" stop-color="rgb(25.250244%, 51.05896%, 79.919434%)" stop-opacity="1"/>
<stop offset="0.605469" stop-color="rgb(25.099182%, 50.691223%, 79.692078%)" stop-opacity="1"/>
<stop offset="0.609375" stop-color="rgb(25.04425%, 50.411987%, 79.516602%)" stop-opacity="1"/>
<stop offset="0.613281" stop-color="rgb(24.987793%, 50.146484%, 79.348755%)" stop-opacity="1"/>
<stop offset="0.617188" stop-color="rgb(24.92981%, 49.880981%, 79.182434%)" stop-opacity="1"/>
<stop offset="0.621094" stop-color="rgb(24.850464%, 49.719238%, 79.083252%)" stop-opacity="1"/>
<stop offset="0.625" stop-color="rgb(24.771118%, 49.557495%, 78.982544%)" stop-opacity="1"/>
<stop offset="0.628906" stop-color="rgb(24.716187%, 49.28894%, 78.813171%)" stop-opacity="1"/>
<stop offset="0.632812" stop-color="rgb(24.661255%, 49.020386%, 78.642273%)" stop-opacity="1"/>
<stop offset="0.636719" stop-color="rgb(24.606323%, 48.754883%, 78.474426%)" stop-opacity="1"/>
<stop offset="0.640625" stop-color="rgb(24.551392%, 48.487854%, 78.305054%)" stop-opacity="1"/>
<stop offset="0.648438" stop-color="rgb(24.456787%, 48.402405%, 78.2547%)" stop-opacity="1"/>
<stop offset="0.652344" stop-color="rgb(24.278259%, 48.18573%, 78.121948%)" stop-opacity="1"/>
<stop offset="0.65625" stop-color="rgb(24.19281%, 48.05603%, 78.041077%)" stop-opacity="1"/>
<stop offset="0.660156" stop-color="rgb(24.116516%, 47.892761%, 77.938843%)" stop-opacity="1"/>
<stop offset="0.664062" stop-color="rgb(24.040222%, 47.729492%, 77.836609%)" stop-opacity="1"/>
<stop offset="0.667969" stop-color="rgb(23.979187%, 47.50061%, 77.690125%)" stop-opacity="1"/>
<stop offset="0.671875" stop-color="rgb(23.918152%, 47.270203%, 77.54364%)" stop-opacity="1"/>
<stop offset="0.675781" stop-color="rgb(23.851013%, 47.079468%, 77.42157%)" stop-opacity="1"/>
<stop offset="0.679688" stop-color="rgb(23.780823%, 46.888733%, 77.2995%)" stop-opacity="1"/>
<stop offset="0.683594" stop-color="rgb(23.704529%, 46.733093%, 77.201843%)" stop-opacity="1"/>
<stop offset="0.6875" stop-color="rgb(23.626709%, 46.577454%, 77.102661%)" stop-opacity="1"/>
<stop offset="0.691406" stop-color="rgb(23.657227%, 46.432495%, 77.006531%)" stop-opacity="1"/>
<stop offset="0.695312" stop-color="rgb(23.686218%, 46.287537%, 76.911926%)" stop-opacity="1"/>
<stop offset="0.699219" stop-color="rgb(23.677063%, 46.138%, 76.81427%)" stop-opacity="1"/>
<stop offset="0.703125" stop-color="rgb(23.666382%, 45.98999%, 76.71814%)" stop-opacity="1"/>
<stop offset="0.707031" stop-color="rgb(23.591614%, 45.835876%, 76.620483%)" stop-opacity="1"/>
<stop offset="0.710938" stop-color="rgb(23.516846%, 45.681763%, 76.521301%)" stop-opacity="1"/>
<stop offset="0.714844" stop-color="rgb(23.469543%, 45.40863%, 76.344299%)" stop-opacity="1"/>
<stop offset="0.71875" stop-color="rgb(23.423767%, 45.133972%, 76.165771%)" stop-opacity="1"/>
<stop offset="0.722656" stop-color="rgb(23.394775%, 44.920349%, 76.026917%)" stop-opacity="1"/>
<stop offset="0.726562" stop-color="rgb(23.364258%, 44.706726%, 75.886536%)" stop-opacity="1"/>
<stop offset="0.734375" stop-color="rgb(23.364258%, 44.706726%, 75.886536%)" stop-opacity="1"/>
<stop offset="0.742188" stop-color="rgb(23.298645%, 44.650269%, 75.85144%)" stop-opacity="1"/>
<stop offset="0.75" stop-color="rgb(23.15979%, 44.502258%, 75.756836%)" stop-opacity="1"/>
<stop offset="0.753906" stop-color="rgb(23.123169%, 44.268799%, 75.604248%)" stop-opacity="1"/>
<stop offset="0.757812" stop-color="rgb(23.158264%, 44.125366%, 75.508118%)" stop-opacity="1"/>
<stop offset="0.761719" stop-color="rgb(23.193359%, 43.981934%, 75.413513%)" stop-opacity="1"/>
<stop offset="0.765625" stop-color="rgb(23.228455%, 43.838501%, 75.317383%)" stop-opacity="1"/>
<stop offset="0.769531" stop-color="rgb(23.258972%, 43.695068%, 75.222778%)" stop-opacity="1"/>
<stop offset="0.773438" stop-color="rgb(23.287964%, 43.551636%, 75.126648%)" stop-opacity="1"/>
<stop offset="0.777344" stop-color="rgb(23.214722%, 43.4021%, 75.028992%)" stop-opacity="1"/>
<stop offset="0.78125" stop-color="rgb(23.139954%, 43.252563%, 74.931335%)" stop-opacity="1"/>
<stop offset="0.796875" stop-color="rgb(23.103333%, 43.17627%, 74.882507%)" stop-opacity="1"/>
<stop offset="0.800781" stop-color="rgb(22.996521%, 42.961121%, 74.742126%)" stop-opacity="1"/>
<stop offset="0.804688" stop-color="rgb(22.927856%, 42.822266%, 74.650574%)" stop-opacity="1"/>
<stop offset="0.8125" stop-color="rgb(22.883606%, 42.729187%, 74.589539%)" stop-opacity="1"/>
<stop offset="0.875" stop-color="rgb(22.836304%, 42.636108%, 74.530029%)" stop-opacity="1"/>
<stop offset="1" stop-color="rgb(22.836304%, 42.636108%, 74.530029%)" stop-opacity="1"/>
</linearGradient>
<clipPath id="clip-3">
<path clip-rule="nonzero" d="M 341 998 L 2637 998 L 2637 1327 L 341 1327 Z M 341 998 "/>
</clipPath>
<clipPath id="clip-4">
<path clip-rule="nonzero" d="M 2546.171875 1326.140625 C 2521.910156 1200.671875 2414.480469 1105.351562 2281.929688 1100.449219 L 2247.429688 1099.980469 L 2218.609375 1099.980469 C 2258.949219 1062.261719 2284.328125 1026.601562 2299.910156 998.921875 C 2460.128906 1010.429688 2591.089844 1119.21875 2636.421875 1266.058594 C 2607.941406 1286.898438 2577.820312 1306.941406 2546.171875 1326.140625 M 430.75 1318.621094 C 399.457031 1299.148438 369.71875 1278.851562 341.621094 1257.75 C 389.269531 1115.28125 517.976562 1010.308594 674.972656 998.921875 C 690.578125 1026.601562 715.886719 1062.210938 756.324219 1099.980469 L 703.25 1099.980469 C 570.230469 1100.191406 458.738281 1193.898438 430.75 1318.621094 "/>
</clipPath>
<clipPath id="clip-5">
<path clip-rule="nonzero" d="M 2546.171875 1326.140625 C 2521.910156 1200.671875 2414.480469 1105.351562 2281.929688 1100.449219 L 2247.429688 1099.980469 L 2218.609375 1099.980469 C 2258.949219 1062.261719 2284.328125 1026.601562 2299.910156 998.921875 C 2460.128906 1010.429688 2591.089844 1119.21875 2636.421875 1266.058594 C 2607.941406 1286.898438 2577.820312 1306.941406 2546.171875 1326.140625 M 430.75 1318.621094 C 399.457031 1299.148438 369.71875 1278.851562 341.621094 1257.75 C 389.269531 1115.28125 517.976562 1010.308594 674.972656 998.921875 C 690.578125 1026.601562 715.886719 1062.210938 756.324219 1099.980469 L 703.25 1099.980469 C 570.230469 1100.191406 458.738281 1193.898438 430.75 1318.621094 "/>
</clipPath>
<linearGradient id="linear-pattern-1" gradientUnits="userSpaceOnUse" x1="0.0306189" y1="0" x2="0.891371" y2="0" gradientTransform="matrix(-0.00001662, -380.156, 380.156, -0.00001662, 1489.02, 1337.78)">
<stop offset="0" stop-color="rgb(45.967102%, 82.472229%, 93.487549%)" stop-opacity="1"/>
<stop offset="0.0078125" stop-color="rgb(45.787048%, 82.420349%, 93.589783%)" stop-opacity="1"/>
<stop offset="0.015625" stop-color="rgb(45.440674%, 82.319641%, 93.815613%)" stop-opacity="1"/>
<stop offset="0.0234375" stop-color="rgb(45.108032%, 82.221985%, 93.968201%)" stop-opacity="1"/>
<stop offset="0.03125" stop-color="rgb(44.775391%, 82.113647%, 93.92395%)" stop-opacity="1"/>
<stop offset="0.0390625" stop-color="rgb(44.45343%, 81.999207%, 93.795776%)" stop-opacity="1"/>
<stop offset="0.046875" stop-color="rgb(44.219971%, 81.860352%, 93.835449%)" stop-opacity="1"/>
<stop offset="0.0546875" stop-color="rgb(44.065857%, 81.70166%, 94.024658%)" stop-opacity="1"/>
<stop offset="0.0625" stop-color="rgb(43.847656%, 81.518555%, 94.062805%)" stop-opacity="1"/>
<stop offset="0.0703125" stop-color="rgb(43.548584%, 81.297302%, 93.899536%)" stop-opacity="1"/>
<stop offset="0.0742188" stop-color="rgb(43.199158%, 81.036377%, 93.72406%)" stop-opacity="1"/>
<stop offset="0.078125" stop-color="rgb(43.006897%, 80.891418%, 93.65387%)" stop-opacity="1"/>
<stop offset="0.0820312" stop-color="rgb(42.771912%, 80.699158%, 93.643188%)" stop-opacity="1"/>
<stop offset="0.0859375" stop-color="rgb(42.5354%, 80.506897%, 93.629456%)" stop-opacity="1"/>
<stop offset="0.0898438" stop-color="rgb(42.303467%, 80.319214%, 93.618774%)" stop-opacity="1"/>
<stop offset="0.09375" stop-color="rgb(42.073059%, 80.130005%, 93.606567%)" stop-opacity="1"/>
<stop offset="0.109375" stop-color="rgb(41.918945%, 79.968262%, 93.661499%)" stop-opacity="1"/>
<stop offset="0.117188" stop-color="rgb(41.583252%, 79.650879%, 93.673706%)" stop-opacity="1"/>
<stop offset="0.121094" stop-color="rgb(41.165161%, 79.301453%, 93.551636%)" stop-opacity="1"/>
<stop offset="0.125" stop-color="rgb(40.92865%, 79.109192%, 93.473816%)" stop-opacity="1"/>
<stop offset="0.128906" stop-color="rgb(40.74707%, 78.935242%, 93.418884%)" stop-opacity="1"/>
<stop offset="0.132812" stop-color="rgb(40.562439%, 78.759766%, 93.362427%)" stop-opacity="1"/>
<stop offset="0.140625" stop-color="rgb(40.493774%, 78.622437%, 93.357849%)" stop-opacity="1"/>
<stop offset="0.148438" stop-color="rgb(40.354919%, 78.347778%, 93.347168%)" stop-opacity="1"/>
<stop offset="0.152344" stop-color="rgb(40.054321%, 78.079224%, 93.296814%)" stop-opacity="1"/>
<stop offset="0.15625" stop-color="rgb(39.822388%, 77.944946%, 93.251038%)" stop-opacity="1"/>
<stop offset="0.160156" stop-color="rgb(39.582825%, 77.813721%, 93.206787%)" stop-opacity="1"/>
<stop offset="0.164062" stop-color="rgb(39.341736%, 77.679443%, 93.161011%)" stop-opacity="1"/>
<stop offset="0.171875" stop-color="rgb(39.205933%, 77.511597%, 93.081665%)" stop-opacity="1"/>
<stop offset="0.175781" stop-color="rgb(39.01062%, 77.146912%, 92.901611%)" stop-opacity="1"/>
<stop offset="0.179688" stop-color="rgb(38.948059%, 76.953125%, 92.800903%)" stop-opacity="1"/>
<stop offset="0.183594" stop-color="rgb(38.865662%, 76.779175%, 92.713928%)" stop-opacity="1"/>
<stop offset="0.1875" stop-color="rgb(38.781738%, 76.603699%, 92.625427%)" stop-opacity="1"/>
<stop offset="0.195312" stop-color="rgb(38.624573%, 76.498413%, 92.584229%)" stop-opacity="1"/>
<stop offset="0.203125" stop-color="rgb(38.311768%, 76.287842%, 92.503357%)" stop-opacity="1"/>
<stop offset="0.210938" stop-color="rgb(38.075256%, 76.049805%, 92.396545%)" stop-opacity="1"/>
<stop offset="0.21875" stop-color="rgb(37.927246%, 75.78125%, 92.262268%)" stop-opacity="1"/>
<stop offset="0.226562" stop-color="rgb(37.748718%, 75.526428%, 92.170715%)" stop-opacity="1"/>
<stop offset="0.234375" stop-color="rgb(37.478638%, 75.305176%, 92.169189%)" stop-opacity="1"/>
<stop offset="0.242188" stop-color="rgb(37.168884%, 75.085449%, 92.190552%)" stop-opacity="1"/>
<stop offset="0.246094" stop-color="rgb(36.872864%, 74.752808%, 92.085266%)" stop-opacity="1"/>
<stop offset="0.25" stop-color="rgb(36.730957%, 74.539185%, 91.97998%)" stop-opacity="1"/>
<stop offset="0.253906" stop-color="rgb(36.590576%, 74.325562%, 91.874695%)" stop-opacity="1"/>
<stop offset="0.257812" stop-color="rgb(36.450195%, 74.110413%, 91.767883%)" stop-opacity="1"/>
<stop offset="0.265625" stop-color="rgb(36.361694%, 74.003601%, 91.717529%)" stop-opacity="1"/>
<stop offset="0.273438" stop-color="rgb(36.199951%, 73.817444%, 91.630554%)" stop-opacity="1"/>
<stop offset="0.28125" stop-color="rgb(35.993958%, 73.570251%, 91.511536%)" stop-opacity="1"/>
<stop offset="0.285156" stop-color="rgb(35.647583%, 73.110962%, 91.288757%)" stop-opacity="1"/>
<stop offset="0.289062" stop-color="rgb(35.43396%, 72.821045%, 91.146851%)" stop-opacity="1"/>
<stop offset="0.292969" stop-color="rgb(35.22644%, 72.546387%, 91.017151%)" stop-opacity="1"/>
<stop offset="0.296875" stop-color="rgb(35.017395%, 72.271729%, 90.885925%)" stop-opacity="1"/>
<stop offset="0.304688" stop-color="rgb(34.863281%, 72.174072%, 90.905762%)" stop-opacity="1"/>
<stop offset="0.3125" stop-color="rgb(34.553528%, 71.980286%, 90.942383%)" stop-opacity="1"/>
<stop offset="0.328125" stop-color="rgb(34.230042%, 71.71936%, 90.805054%)" stop-opacity="1"/>
<stop offset="0.335938" stop-color="rgb(33.966064%, 71.435547%, 90.609741%)" stop-opacity="1"/>
<stop offset="0.339844" stop-color="rgb(33.732605%, 71.115112%, 90.643311%)" stop-opacity="1"/>
<stop offset="0.34375" stop-color="rgb(33.595276%, 70.913696%, 90.713501%)" stop-opacity="1"/>
<stop offset="0.347656" stop-color="rgb(33.457947%, 70.713806%, 90.782166%)" stop-opacity="1"/>
<stop offset="0.351562" stop-color="rgb(33.319092%, 70.513916%, 90.85083%)" stop-opacity="1"/>
<stop offset="0.359375" stop-color="rgb(33.247375%, 70.43457%, 90.759277%)" stop-opacity="1"/>
<stop offset="0.367188" stop-color="rgb(33.102417%, 70.277405%, 90.57312%)" stop-opacity="1"/>
<stop offset="0.375" stop-color="rgb(32.917786%, 70.043945%, 90.412903%)" stop-opacity="1"/>
<stop offset="0.378906" stop-color="rgb(32.669067%, 69.68689%, 90.301514%)" stop-opacity="1"/>
<stop offset="0.382812" stop-color="rgb(32.533264%, 69.485474%, 90.252686%)" stop-opacity="1"/>
<stop offset="0.386719" stop-color="rgb(32.417297%, 69.303894%, 90.214539%)" stop-opacity="1"/>
<stop offset="0.390625" stop-color="rgb(32.299805%, 69.122314%, 90.174866%)" stop-opacity="1"/>
<stop offset="0.398438" stop-color="rgb(32.237244%, 68.995667%, 90.164185%)" stop-opacity="1"/>
<stop offset="0.40625" stop-color="rgb(32.110596%, 68.745422%, 90.141296%)" stop-opacity="1"/>
<stop offset="0.410156" stop-color="rgb(31.919861%, 68.424988%, 90.031433%)" stop-opacity="1"/>
<stop offset="0.414062" stop-color="rgb(31.791687%, 68.229675%, 89.933777%)" stop-opacity="1"/>
<stop offset="0.417969" stop-color="rgb(31.65741%, 68.029785%, 89.828491%)" stop-opacity="1"/>
<stop offset="0.421875" stop-color="rgb(31.523132%, 67.829895%, 89.723206%)" stop-opacity="1"/>
<stop offset="0.425781" stop-color="rgb(31.472778%, 67.680359%, 89.639282%)" stop-opacity="1"/>
<stop offset="0.429688" stop-color="rgb(31.419373%, 67.530823%, 89.555359%)" stop-opacity="1"/>
<stop offset="0.4375" stop-color="rgb(31.437683%, 67.425537%, 89.491272%)" stop-opacity="1"/>
<stop offset="0.441406" stop-color="rgb(31.462097%, 67.179871%, 89.343262%)" stop-opacity="1"/>
<stop offset="0.445312" stop-color="rgb(31.469727%, 67.041016%, 89.259338%)" stop-opacity="1"/>
<stop offset="0.449219" stop-color="rgb(31.434631%, 66.757202%, 89.093018%)" stop-opacity="1"/>
<stop offset="0.453125" stop-color="rgb(31.39801%, 66.471863%, 88.926697%)" stop-opacity="1"/>
<stop offset="0.457031" stop-color="rgb(31.362915%, 66.188049%, 88.760376%)" stop-opacity="1"/>
<stop offset="0.460938" stop-color="rgb(31.326294%, 65.90271%, 88.594055%)" stop-opacity="1"/>
<stop offset="0.464844" stop-color="rgb(31.217957%, 65.647888%, 88.452148%)" stop-opacity="1"/>
<stop offset="0.46875" stop-color="rgb(31.111145%, 65.391541%, 88.310242%)" stop-opacity="1"/>
<stop offset="0.472656" stop-color="rgb(30.987549%, 65.144348%, 88.172913%)" stop-opacity="1"/>
<stop offset="0.476562" stop-color="rgb(30.865479%, 64.89563%, 88.035583%)" stop-opacity="1"/>
<stop offset="0.480469" stop-color="rgb(30.776978%, 64.682007%, 87.915039%)" stop-opacity="1"/>
<stop offset="0.484375" stop-color="rgb(30.686951%, 64.466858%, 87.794495%)" stop-opacity="1"/>
<stop offset="0.488281" stop-color="rgb(30.635071%, 64.291382%, 87.693787%)" stop-opacity="1"/>
<stop offset="0.492188" stop-color="rgb(30.581665%, 64.115906%, 87.593079%)" stop-opacity="1"/>
<stop offset="0.496094" stop-color="rgb(30.52063%, 63.949585%, 87.498474%)" stop-opacity="1"/>
<stop offset="0.5" stop-color="rgb(30.459595%, 63.781738%, 87.40387%)" stop-opacity="1"/>
<stop offset="0.507812" stop-color="rgb(30.310059%, 63.694763%, 87.364197%)" stop-opacity="1"/>
<stop offset="0.515625" stop-color="rgb(30.014038%, 63.517761%, 87.284851%)" stop-opacity="1"/>
<stop offset="0.519531" stop-color="rgb(29.803467%, 63.201904%, 87.112427%)" stop-opacity="1"/>
<stop offset="0.523438" stop-color="rgb(29.740906%, 62.973022%, 86.979675%)" stop-opacity="1"/>
<stop offset="0.527344" stop-color="rgb(29.708862%, 62.696838%, 86.81488%)" stop-opacity="1"/>
<stop offset="0.53125" stop-color="rgb(29.676819%, 62.419128%, 86.650085%)" stop-opacity="1"/>
<stop offset="0.535156" stop-color="rgb(29.631042%, 62.22229%, 86.535645%)" stop-opacity="1"/>
<stop offset="0.539062" stop-color="rgb(29.58374%, 62.023926%, 86.418152%)" stop-opacity="1"/>
<stop offset="0.546875" stop-color="rgb(29.515076%, 61.955261%, 86.383057%)" stop-opacity="1"/>
<stop offset="0.554687" stop-color="rgb(29.379272%, 61.816406%, 86.309814%)" stop-opacity="1"/>
<stop offset="0.558594" stop-color="rgb(29.270935%, 61.520386%, 86.140442%)" stop-opacity="1"/>
<stop offset="0.5625" stop-color="rgb(29.229736%, 61.296082%, 86.00769%)" stop-opacity="1"/>
<stop offset="0.566406" stop-color="rgb(29.190063%, 61.073303%, 85.874939%)" stop-opacity="1"/>
<stop offset="0.570313" stop-color="rgb(29.148865%, 60.850525%, 85.743713%)" stop-opacity="1"/>
<stop offset="0.574219" stop-color="rgb(29.103088%, 60.662842%, 85.632324%)" stop-opacity="1"/>
<stop offset="0.578125" stop-color="rgb(29.055786%, 60.473633%, 85.520935%)" stop-opacity="1"/>
<stop offset="0.582031" stop-color="rgb(29.006958%, 60.30426%, 85.421753%)" stop-opacity="1"/>
<stop offset="0.585937" stop-color="rgb(28.95813%, 60.133362%, 85.321045%)" stop-opacity="1"/>
<stop offset="0.589844" stop-color="rgb(28.889465%, 59.944153%, 85.211182%)" stop-opacity="1"/>
<stop offset="0.59375" stop-color="rgb(28.819275%, 59.753418%, 85.099792%)" stop-opacity="1"/>
<stop offset="0.597656" stop-color="rgb(28.701782%, 59.518433%, 84.965515%)" stop-opacity="1"/>
<stop offset="0.601563" stop-color="rgb(28.585815%, 59.281921%, 84.829712%)" stop-opacity="1"/>
<stop offset="0.605469" stop-color="rgb(28.469849%, 59.046936%, 84.695435%)" stop-opacity="1"/>
<stop offset="0.609375" stop-color="rgb(28.353882%, 58.811951%, 84.559631%)" stop-opacity="1"/>
<stop offset="0.613281" stop-color="rgb(28.302002%, 58.641052%, 84.458923%)" stop-opacity="1"/>
<stop offset="0.617187" stop-color="rgb(28.250122%, 58.468628%, 84.356689%)" stop-opacity="1"/>
<stop offset="0.621094" stop-color="rgb(28.20282%, 58.302307%, 84.257507%)" stop-opacity="1"/>
<stop offset="0.625" stop-color="rgb(28.153992%, 58.132935%, 84.158325%)" stop-opacity="1"/>
<stop offset="0.628906" stop-color="rgb(28.062439%, 57.957458%, 84.057617%)" stop-opacity="1"/>
<stop offset="0.632813" stop-color="rgb(27.96936%, 57.781982%, 83.955383%)" stop-opacity="1"/>
<stop offset="0.636719" stop-color="rgb(27.845764%, 57.601929%, 83.853149%)" stop-opacity="1"/>
<stop offset="0.640625" stop-color="rgb(27.720642%, 57.421875%, 83.750916%)" stop-opacity="1"/>
<stop offset="0.644531" stop-color="rgb(27.609253%, 57.267761%, 83.66394%)" stop-opacity="1"/>
<stop offset="0.648437" stop-color="rgb(27.497864%, 57.112122%, 83.576965%)" stop-opacity="1"/>
<stop offset="0.65625" stop-color="rgb(27.432251%, 57.049561%, 83.54187%)" stop-opacity="1"/>
<stop offset="0.664063" stop-color="rgb(27.297974%, 56.919861%, 83.47168%)" stop-opacity="1"/>
<stop offset="0.667969" stop-color="rgb(27.191162%, 56.661987%, 83.319092%)" stop-opacity="1"/>
<stop offset="0.671875" stop-color="rgb(27.149963%, 56.468201%, 83.201599%)" stop-opacity="1"/>
<stop offset="0.675781" stop-color="rgb(27.113342%, 56.253052%, 83.070374%)" stop-opacity="1"/>
<stop offset="0.679687" stop-color="rgb(27.078247%, 56.039429%, 82.939148%)" stop-opacity="1"/>
<stop offset="0.683594" stop-color="rgb(27.038574%, 55.85022%, 82.824707%)" stop-opacity="1"/>
<stop offset="0.6875" stop-color="rgb(26.99585%, 55.661011%, 82.710266%)" stop-opacity="1"/>
<stop offset="0.691406" stop-color="rgb(26.951599%, 55.497742%, 82.611084%)" stop-opacity="1"/>
<stop offset="0.695313" stop-color="rgb(26.904297%, 55.334473%, 82.511902%)" stop-opacity="1"/>
<stop offset="0.699219" stop-color="rgb(26.858521%, 55.178833%, 82.418823%)" stop-opacity="1"/>
<stop offset="0.703125" stop-color="rgb(26.811218%, 55.021667%, 82.324219%)" stop-opacity="1"/>
<stop offset="0.710937" stop-color="rgb(26.756287%, 54.910278%, 82.25708%)" stop-opacity="1"/>
<stop offset="0.71875" stop-color="rgb(26.644897%, 54.684448%, 82.124329%)" stop-opacity="1"/>
<stop offset="0.722656" stop-color="rgb(26.490784%, 54.374695%, 81.939697%)" stop-opacity="1"/>
<stop offset="0.726563" stop-color="rgb(26.393127%, 54.174805%, 81.820679%)" stop-opacity="1"/>
<stop offset="0.730469" stop-color="rgb(26.281738%, 53.953552%, 81.687927%)" stop-opacity="1"/>
<stop offset="0.734375" stop-color="rgb(26.171875%, 53.730774%, 81.555176%)" stop-opacity="1"/>
<stop offset="0.738281" stop-color="rgb(26.113892%, 53.579712%, 81.465149%)" stop-opacity="1"/>
<stop offset="0.742187" stop-color="rgb(26.052856%, 53.430176%, 81.373596%)" stop-opacity="1"/>
<stop offset="0.75" stop-color="rgb(26.063538%, 53.381348%, 81.341553%)" stop-opacity="1"/>
<stop offset="0.757813" stop-color="rgb(26.077271%, 53.271484%, 81.272888%)" stop-opacity="1"/>
<stop offset="0.761719" stop-color="rgb(25.971985%, 52.992249%, 81.103516%)" stop-opacity="1"/>
<stop offset="0.765625" stop-color="rgb(25.863647%, 52.772522%, 80.970764%)" stop-opacity="1"/>
<stop offset="0.769531" stop-color="rgb(25.75531%, 52.552795%, 80.838013%)" stop-opacity="1"/>
<stop offset="0.773437" stop-color="rgb(25.646973%, 52.333069%, 80.705261%)" stop-opacity="1"/>
<stop offset="0.777344" stop-color="rgb(25.590515%, 52.122498%, 80.575562%)" stop-opacity="1"/>
<stop offset="0.78125" stop-color="rgb(25.535583%, 51.911926%, 80.444336%)" stop-opacity="1"/>
<stop offset="0.785156" stop-color="rgb(25.50354%, 51.704407%, 80.314636%)" stop-opacity="1"/>
<stop offset="0.789063" stop-color="rgb(25.469971%, 51.496887%, 80.184937%)" stop-opacity="1"/>
<stop offset="0.792969" stop-color="rgb(25.428772%, 51.339722%, 80.08728%)" stop-opacity="1"/>
<stop offset="0.796875" stop-color="rgb(25.384521%, 51.182556%, 79.989624%)" stop-opacity="1"/>
<stop offset="0.8125" stop-color="rgb(25.257874%, 51.065063%, 79.922485%)" stop-opacity="1"/>
<stop offset="0.816406" stop-color="rgb(25.097656%, 50.746155%, 79.727173%)" stop-opacity="1"/>
<stop offset="0.820313" stop-color="rgb(25.065613%, 50.544739%, 79.600525%)" stop-opacity="1"/>
<stop offset="0.824219" stop-color="rgb(25.033569%, 50.340271%, 79.470825%)" stop-opacity="1"/>
<stop offset="0.828125" stop-color="rgb(25.001526%, 50.135803%, 79.342651%)" stop-opacity="1"/>
<stop offset="0.832031" stop-color="rgb(24.958801%, 49.990845%, 79.251099%)" stop-opacity="1"/>
<stop offset="0.835937" stop-color="rgb(24.913025%, 49.847412%, 79.161072%)" stop-opacity="1"/>
<stop offset="0.84375" stop-color="rgb(24.861145%, 49.740601%, 79.095459%)" stop-opacity="1"/>
<stop offset="0.847656" stop-color="rgb(24.761963%, 49.504089%, 78.948975%)" stop-opacity="1"/>
<stop offset="0.851563" stop-color="rgb(24.714661%, 49.372864%, 78.866577%)" stop-opacity="1"/>
<stop offset="0.855469" stop-color="rgb(24.684143%, 49.169922%, 78.738403%)" stop-opacity="1"/>
<stop offset="0.859375" stop-color="rgb(24.653625%, 48.96698%, 78.610229%)" stop-opacity="1"/>
<stop offset="0.863281" stop-color="rgb(24.624634%, 48.765564%, 78.48053%)" stop-opacity="1"/>
<stop offset="0.867187" stop-color="rgb(24.59259%, 48.562622%, 78.352356%)" stop-opacity="1"/>
<stop offset="0.875" stop-color="rgb(24.534607%, 48.490906%, 78.308105%)" stop-opacity="1"/>
<stop offset="0.882813" stop-color="rgb(24.414062%, 48.362732%, 78.230286%)" stop-opacity="1"/>
<stop offset="0.890625" stop-color="rgb(24.293518%, 48.223877%, 78.146362%)" stop-opacity="1"/>
<stop offset="0.898437" stop-color="rgb(24.185181%, 48.039246%, 78.030396%)" stop-opacity="1"/>
<stop offset="0.90625" stop-color="rgb(24.084473%, 47.822571%, 77.894592%)" stop-opacity="1"/>
<stop offset="0.910156" stop-color="rgb(23.994446%, 47.558594%, 77.726746%)" stop-opacity="1"/>
<stop offset="0.914063" stop-color="rgb(23.954773%, 47.406006%, 77.629089%)" stop-opacity="1"/>
<stop offset="0.917969" stop-color="rgb(23.9151%, 47.254944%, 77.532959%)" stop-opacity="1"/>
<stop offset="0.921875" stop-color="rgb(23.875427%, 47.103882%, 77.436829%)" stop-opacity="1"/>
<stop offset="0.929687" stop-color="rgb(23.826599%, 46.992493%, 77.366638%)" stop-opacity="1"/>
<stop offset="0.9375" stop-color="rgb(23.727417%, 46.777344%, 77.229309%)" stop-opacity="1"/>
<stop offset="0.945313" stop-color="rgb(23.658752%, 46.575928%, 77.101135%)" stop-opacity="1"/>
<stop offset="0.953125" stop-color="rgb(23.664856%, 46.380615%, 76.972961%)" stop-opacity="1"/>
<stop offset="0.960937" stop-color="rgb(23.703003%, 46.188354%, 76.846313%)" stop-opacity="1"/>
<stop offset="0.96875" stop-color="rgb(23.669434%, 45.991516%, 76.719666%)" stop-opacity="1"/>
<stop offset="0.976563" stop-color="rgb(23.568726%, 45.788574%, 76.589966%)" stop-opacity="1"/>
<stop offset="0.980469" stop-color="rgb(23.484802%, 45.515442%, 76.41449%)" stop-opacity="1"/>
<stop offset="0.984375" stop-color="rgb(23.451233%, 45.344543%, 76.303101%)" stop-opacity="1"/>
<stop offset="0.988281" stop-color="rgb(23.425293%, 45.149231%, 76.174927%)" stop-opacity="1"/>
<stop offset="0.992187" stop-color="rgb(23.397827%, 44.953918%, 76.048279%)" stop-opacity="1"/>
<stop offset="0.996094" stop-color="rgb(23.381042%, 44.830322%, 75.967407%)" stop-opacity="1"/>
<stop offset="1" stop-color="rgb(23.364258%, 44.706726%, 75.886536%)" stop-opacity="1"/>
</linearGradient>
</defs>
<rect x="-300" y="-300" width="3600" height="3600" fill="rgb(100%, 100%, 100%)" fill-opacity="1"/>
<path fill-rule="nonzero" fill="rgb(6.30188%, 5.761719%, 5.056763%)" fill-opacity="1" d="M 1487.140625 838.390625 L 1488.03125 838.378906 L 1487.140625 838.390625 "/>
<path fill-rule="evenodd" fill="rgb(65.501404%, 64.872742%, 65.028381%)" fill-opacity="1" d="M 2230.511719 880.671875 C 2113.578125 931.21875 1978.96875 961.261719 1837.210938 983.730469 C 2001.199219 918.589844 2170.898438 887.710938 2216.191406 739.390625 L 2214.488281 739.699219 L 2214.558594 740.171875 L 1694.550781 990.191406 L 1641.011719 1153.761719 L 1554.800781 1214.230469 L 1554.800781 1243.308594 L 1667.328125 1165.058594 L 1721.070312 1013.199219 L 1796.710938 967.648438 L 1741.539062 1033.058594 L 1704.78125 1197.199219 L 1573.238281 1250.160156 C 1579.679688 1251.101562 1585.921875 1252.199219 1591.171875 1253.378906 L 1592.589844 1253.679688 L 1593.980469 1254.179688 C 1604.449219 1257.488281 1613.339844 1260.148438 1619.179688 1261.839844 C 1621.578125 1262.378906 1624.101562 1262.980469 1626.640625 1263.671875 L 1627.871094 1264 L 1629.011719 1264.410156 C 1638.101562 1267.519531 1646.25 1270.730469 1654.050781 1274.230469 L 1662.101562 1277.859375 L 1667.308594 1284.910156 C 1674.691406 1294.960938 1678.148438 1309.421875 1677.101562 1323.140625 C 1728.441406 1325.589844 1779.699219 1320.019531 1821.460938 1298.96875 C 1802.949219 1296.21875 1780.53125 1288.25 1776.589844 1271.609375 C 1807.75 1286.300781 1863.679688 1284.199219 1907.871094 1267.328125 C 1876.960938 1255.96875 1844.410156 1246.898438 1821.808594 1223.699219 C 1859.691406 1242.328125 1937.679688 1234.648438 1981.460938 1209.480469 C 1948.359375 1195 1902.371094 1188.289062 1869.390625 1170.339844 C 1867.03125 1169.039062 1858.550781 1167.660156 1861.519531 1163.320312 C 1908.789062 1176.171875 1991.441406 1166.371094 2036.03125 1138.21875 C 1992.339844 1126.730469 1945.320312 1119.980469 1904.738281 1104.050781 C 2018.46875 1097.460938 2137.988281 1063.609375 2185.96875 1000.320312 C 2086.121094 1017.609375 1996.230469 1032.808594 1906.53125 1036.898438 C 2041.878906 1006.730469 2184.859375 972.230469 2230.511719 880.671875 M 1388.230469 1256.730469 C 1393.261719 1254.761719 1398.851562 1253.078125 1405.421875 1251.570312 L 1270.398438 1197.199219 L 1233.660156 1033.058594 L 1178.488281 967.648438 L 1254.101562 1013.199219 L 1307.859375 1165.058594 L 1425.289062 1246.71875 L 1425.289062 1217.660156 L 1334.199219 1153.761719 L 1280.648438 990.191406 L 760.617188 740.171875 L 760.679688 739.699219 L 759.03125 739.390625 C 804.265625 887.710938 973.960938 918.589844 1137.988281 983.730469 C 996.199219 961.261719 861.632812 931.21875 744.703125 880.671875 C 790.351562 972.230469 933.300781 1006.730469 1068.679688 1036.898438 C 978.949219 1032.808594 889.101562 1017.609375 789.21875 1000.320312 C 837.226562 1063.609375 956.71875 1097.460938 1070.46875 1104.050781 C 1029.890625 1119.980469 982.835938 1126.730469 939.175781 1138.21875 C 983.726562 1166.371094 1066.378906 1176.171875 1113.699219 1163.320312 C 1116.671875 1167.660156 1108.140625 1169.039062 1105.789062 1170.339844 C 1072.828125 1188.289062 1026.808594 1195 993.71875 1209.480469 C 1037.511719 1234.648438 1115.488281 1242.328125 1153.398438 1223.699219 C 1130.800781 1246.898438 1098.25 1255.96875 1067.289062 1267.328125 C 1111.5 1284.199219 1167.421875 1286.300781 1198.578125 1271.609375 C 1194.640625 1288.25 1172.261719 1296.21875 1153.75 1298.96875 C 1192.949219 1318.71875 1240.53125 1324.859375 1288.71875 1323.5 C 1316.480469 1279.671875 1366.429688 1263.390625 1388.230469 1256.730469 M 1522.058594 1896.238281 C 1528.421875 1900.730469 1533.941406 1905.898438 1535.308594 1913.589844 C 1536.828125 1922.71875 1529.238281 1932.378906 1521.621094 1939.578125 C 1519.789062 1941.289062 1517.179688 1943.230469 1513.96875 1945.480469 L 1512.679688 1891.601562 C 1518.460938 1894.449219 1521.980469 1896.238281 1522.058594 1896.238281 M 1468.320312 1781.871094 C 1455.511719 1775.21875 1446.761719 1770.441406 1446.761719 1770.441406 C 1446.449219 1770.261719 1446.261719 1770.03125 1446.03125 1769.828125 C 1445.269531 1769.359375 1444.5 1768.851562 1443.738281 1768.429688 C 1435.308594 1762.339844 1428.808594 1755.96875 1428.449219 1750.949219 C 1428.148438 1750 1427.980469 1749 1427.839844 1748.121094 C 1427.839844 1748.039062 1427.839844 1747.960938 1427.78125 1747.800781 C 1427.78125 1747.398438 1427.699219 1746.929688 1427.699219 1746.480469 C 1426.109375 1724.019531 1468.988281 1717.449219 1468.988281 1717.449219 L 1468.320312 1781.871094 M 1556.179688 1291.910156 C 1561.269531 1291.910156 1565.320312 1295.320312 1565.320312 1299.441406 C 1565.320312 1303.648438 1561.269531 1306.921875 1556.179688 1306.921875 C 1551.078125 1306.921875 1547.011719 1303.648438 1547.011719 1299.441406 C 1547.011719 1295.320312 1551.078125 1291.910156 1556.179688 1291.910156 M 1586.371094 1485.28125 C 1556.871094 1467.359375 1514.859375 1450.738281 1514.859375 1450.738281 L 1516.960938 1538.980469 C 1516.960938 1538.980469 1569 1548.75 1558.050781 1583.589844 C 1557.910156 1583.980469 1557.769531 1584.449219 1557.601562 1584.738281 C 1556.988281 1586.609375 1556.261719 1588.480469 1555.199219 1590.488281 L 1555 1590.128906 C 1550.578125 1597.011719 1542.199219 1604.121094 1527.738281 1611.320312 C 1523.199219 1613.421875 1515.269531 1616.828125 1506.28125 1620.511719 L 1500.058594 1355.871094 C 1500.058594 1355.871094 1529.691406 1358.921875 1539.199219 1358.921875 L 1539.199219 1358.710938 C 1587.480469 1367.800781 1635.171875 1350.71875 1635.171875 1350.71875 C 1638.140625 1345.808594 1637.570312 1338.050781 1634.191406 1333.949219 C 1646.691406 1331.351562 1644.800781 1311.109375 1640.28125 1304.929688 C 1632.929688 1301.648438 1625.460938 1298.761719 1618.058594 1296.21875 C 1615.539062 1295.570312 1613 1294.960938 1610.691406 1294.429688 C 1604.671875 1292.679688 1595.101562 1289.851562 1583.71875 1286.230469 C 1566.738281 1282.390625 1534.359375 1279.378906 1534.359375 1279.378906 C 1530.808594 1279.128906 1526.320312 1278.929688 1521.148438 1278.699219 L 1521.148438 1268.558594 L 1521.480469 1256.371094 C 1521.378906 1256.46875 1521.25 1256.539062 1521.148438 1256.648438 L 1521.148438 1157.441406 C 1512.078125 1161.539062 1501.878906 1163.921875 1491.070312 1163.921875 C 1479.46875 1163.921875 1468.519531 1161.25 1458.960938 1156.550781 L 1458.960938 1278.75 C 1453.648438 1279.070312 1448.339844 1279.398438 1443.179688 1279.78125 C 1443.179688 1279.78125 1423.039062 1282.011719 1418.851562 1283.101562 C 1411.589844 1284.539062 1405.058594 1286.230469 1399.691406 1288.390625 L 1399.691406 1288.429688 C 1347.078125 1304.441406 1306.148438 1331.351562 1302.941406 1387.679688 C 1298.398438 1468.671875 1438.320312 1512.148438 1438.320312 1512.148438 L 1458.21875 1518.929688 L 1458.960938 1434.121094 C 1452.070312 1432.859375 1426.5 1426.878906 1414.960938 1407.859375 C 1413.679688 1405.75 1413.070312 1404.121094 1412.808594 1402.691406 C 1411.21875 1398.398438 1410.46875 1393.699219 1411.019531 1388.640625 C 1411.019531 1387.878906 1411.21875 1387.128906 1411.378906 1386.398438 C 1413.480469 1370.289062 1428.210938 1363.171875 1441.328125 1360.050781 C 1441.328125 1360.039062 1441.328125 1360.039062 1441.390625 1359.941406 C 1445.640625 1358.230469 1458.148438 1357.230469 1472.269531 1356.609375 L 1469.738281 1635.339844 C 1462.179688 1638.328125 1457.011719 1640.351562 1457.011719 1640.351562 C 1450.128906 1643.121094 1444.398438 1645.519531 1440.859375 1646.859375 C 1394.960938 1665.488281 1345.410156 1681.28125 1334.570312 1728.578125 C 1334.058594 1730.691406 1333.699219 1732.710938 1333.558594 1734.71875 C 1328.28125 1801.699219 1384.050781 1831.351562 1433.761719 1855.058594 C 1434.941406 1855.660156 1436.21875 1856.261719 1437.398438 1856.851562 C 1442.929688 1859.109375 1450.070312 1862.179688 1457.75 1865.46875 C 1458.398438 1865.839844 1458.960938 1866.070312 1459.640625 1866.378906 L 1459.640625 1865.910156 C 1462.179688 1867.191406 1464.800781 1868.488281 1467.5 1869.691406 L 1466.589844 1973.109375 L 1459.570312 1977.140625 L 1459.699219 1976.378906 C 1456.769531 1977.949219 1454.019531 1979.371094 1451.390625 1980.71875 C 1448.859375 1981.941406 1446.390625 1982.980469 1444.160156 1984.03125 C 1444.160156 1984.03125 1357.980469 2023.089844 1366.101562 2078.339844 C 1369.230469 2099.269531 1385.78125 2118.378906 1401.71875 2130.351562 C 1408.070312 2134.96875 1415.03125 2138.878906 1422.308594 2142.308594 C 1429.429688 2145.019531 1439.738281 2149.050781 1451.261719 2153.921875 L 1451.261719 2087.980469 C 1446.898438 2085.441406 1443.480469 2082.820312 1441.03125 2080.191406 C 1437.089844 2073.699219 1436.75 2065.609375 1439.800781 2058.28125 C 1443.691406 2052.140625 1451.5 2045.769531 1459.371094 2040.511719 L 1455.589844 2042.621094 C 1456.730469 2041.878906 1457.988281 2041.140625 1459.269531 2040.398438 L 1459.371094 2040.511719 C 1460.75 2039.488281 1463.089844 2038.058594 1466 2036.410156 L 1464.699219 2167.949219 L 1464.699219 2205.171875 L 1465.558594 2214 L 1465.558594 2216.320312 C 1467.210938 2226.429688 1468.019531 2236.269531 1468.019531 2245.808594 C 1457.480469 2245.460938 1450.648438 2243.5 1450.648438 2243.5 C 1428.148438 2236.371094 1413.011719 2221.058594 1413.011719 2221.058594 C 1413.011719 2221.058594 1422.109375 2245.171875 1449.160156 2258.859375 C 1449.671875 2259.210938 1450.238281 2259.449219 1450.828125 2259.671875 C 1452.011719 2260.261719 1453.230469 2260.871094 1454.570312 2261.398438 L 1454.570312 2261.320312 C 1458.511719 2262.96875 1462.640625 2264.148438 1466.78125 2265.058594 C 1466.058594 2270.171875 1465.109375 2275.089844 1463.96875 2279.921875 L 1491.019531 2381.339844 L 1517.628906 2279.921875 C 1516.679688 2274.558594 1515.878906 2269.378906 1515.46875 2264.410156 C 1516.679688 2264.148438 1517.941406 2263.941406 1519.058594 2263.640625 C 1523.980469 2262.460938 1563.429688 2251.738281 1577.441406 2218.660156 C 1579.371094 2213.46875 1580.710938 2207.878906 1581.570312 2202.019531 C 1585.820312 2169.191406 1561.191406 2143.898438 1544.671875 2130.871094 C 1539.800781 2127.28125 1535.101562 2123.988281 1530.808594 2121.300781 L 1531.648438 2157.339844 C 1531.648438 2157.339844 1531.730469 2157.441406 1531.949219 2157.601562 C 1534.761719 2159.828125 1537.101562 2162.601562 1538.949219 2165.671875 C 1549.078125 2179.359375 1561.730469 2207.671875 1520.199219 2232.820312 L 1520.199219 2232.71875 C 1518.710938 2233.691406 1517.179688 2234.429688 1515.699219 2235.28125 C 1516.449219 2228.078125 1517.570312 2221.179688 1518.96875 2214.609375 L 1519.21875 2205.171875 L 1519.429688 2205.171875 L 1519.429688 2198.910156 L 1519.378906 2198.910156 L 1519.429688 2198.03125 L 1519.429688 2175.710938 L 1515.539062 2011.328125 C 1520.769531 2008.808594 1524.21875 2007.140625 1524.21875 2007.140625 C 1526.109375 2006.328125 1527.839844 2005.519531 1529.390625 2004.890625 C 1559.390625 1989.871094 1591.371094 1976.851562 1606.648438 1950.648438 C 1616.820312 1933.058594 1618.058594 1910.460938 1613.851562 1889.808594 L 1613.609375 1889.949219 C 1613.550781 1889.058594 1613.441406 1888.160156 1613.300781 1887.308594 C 1612.449219 1883.738281 1611.511719 1880.148438 1610.398438 1876.769531 C 1596.070312 1842.261719 1541.199219 1815.699219 1519.519531 1806.261719 L 1519.519531 1806.570312 C 1516.570312 1805.308594 1513.601562 1803.941406 1510.601562 1802.601562 L 1508.230469 1702.539062 C 1508.230469 1702.539062 1560.25 1683.460938 1598.628906 1663.621094 L 1598.390625 1663.621094 C 1598.390625 1663.621094 1654.148438 1638.398438 1652.050781 1575.769531 L 1652.140625 1575.769531 C 1652.050781 1571.878906 1651.828125 1567.921875 1651.449219 1563.839844 C 1648.25 1532.378906 1616.519531 1504.75 1586.371094 1485.28125 M 1446.339844 1111.921875 C 1446.261719 1112.730469 1446.191406 1113.550781 1446.191406 1114.300781 C 1446.191406 1135.519531 1466.230469 1152.679688 1491.070312 1152.679688 C 1515.910156 1152.679688 1535.980469 1135.519531 1535.980469 1114.300781 C 1535.980469 1113.550781 1535.839844 1112.730469 1535.839844 1111.921875 C 1524.21875 1119.371094 1508.441406 1123.960938 1491.070312 1123.960938 C 1473.699219 1123.960938 1457.988281 1119.371094 1446.339844 1111.921875 M 1491.070312 1117.589844 C 1523.851562 1117.589844 1550.398438 1097.5 1550.398438 1072.71875 C 1550.398438 1047.988281 1523.851562 1028.050781 1491.070312 1028.050781 C 1458.398438 1028.050781 1431.78125 1047.988281 1431.78125 1072.71875 C 1431.78125 1097.5 1458.398438 1117.589844 1491.070312 1117.589844 "/>
<path fill-rule="nonzero" fill="rgb(31.809998%, 68.017578%, 89.805603%)" fill-opacity="1" d="M 2287.851562 977.339844 C 2269.378906 1013.691406 2233.480469 1065.421875 2164.621094 1118.449219 L 2164.539062 1118.511719 C 2163.550781 1119.269531 2162.441406 1120.039062 2161.421875 1120.789062 L 2247.171875 1120.789062 L 2281.140625 1121.269531 C 2419.648438 1126.390625 2530.289062 1239.710938 2530.558594 1379.398438 C 2530.289062 1522.210938 2414.738281 1637.75 2271.941406 1638.050781 L 1746.179688 1638.050781 L 1746.179688 2163.78125 C 1745.941406 2306.578125 1630.410156 2422.160156 1487.578125 2422.390625 C 1344.78125 2422.160156 1229.199219 2306.578125 1228.898438 2163.78125 L 1228.960938 1638.050781 L 703.234375 1638.050781 C 560.386719 1637.75 444.84375 1522.210938 444.617188 1379.398438 C 444.84375 1236.621094 560.386719 1121.058594 703.234375 1120.789062 L 813.402344 1120.789062 C 742.570312 1067 705.769531 1014.238281 687.015625 977.359375 C 472.183594 985.898438 300.78125 1162.570312 300.71875 1379.398438 C 300.78125 1601.71875 480.871094 1781.871094 703.234375 1781.910156 L 1085.03125 1781.910156 L 1085.03125 2163.78125 C 1085.140625 2386.078125 1265.28125 2566.21875 1487.578125 2566.269531 C 1709.878906 2566.21875 1890 2386.078125 1890.039062 2163.78125 L 1890.039062 1781.910156 L 2271.941406 1781.910156 C 2494.238281 1781.871094 2674.398438 1601.71875 2674.460938 1379.398438 C 2674.398438 1162.46875 2502.75 985.730469 2287.851562 977.339844 "/>
<path fill-rule="nonzero" fill="rgb(31.809998%, 68.017578%, 89.805603%)" fill-opacity="1" d="M 1720.480469 267.609375 L 1720.480469 268 C 1720.480469 268 1654.191406 216.191406 1585.210938 244.140625 L 1585.210938 243.390625 C 1546.558594 257.691406 1504.488281 290.558594 1485.941406 365.058594 C 1467.210938 289.851562 1424.46875 257.019531 1385.53125 242.960938 C 1383.230469 242.109375 1380.929688 241.289062 1378.628906 240.621094 C 1377.25 240.21875 1375.871094 239.851562 1374.480469 239.441406 C 1324.300781 226.730469 1278.058594 251.929688 1260.871094 263.058594 C 1154.839844 335.460938 1085.089844 456.960938 1085.089844 595.039062 L 1085.078125 838.558594 L 1228.960938 907.78125 L 1228.960938 595.039062 C 1229.089844 490.21875 1291.691406 400.621094 1381.300781 360.070312 C 1393.640625 355.089844 1427.03125 343.351562 1439.800781 358.261719 C 1446.96875 365.199219 1453.308594 376.960938 1457.011719 395.921875 C 1458.558594 406.691406 1463.660156 456.789062 1440.480469 521.058594 C 1432.070312 542.699219 1423.210938 560.421875 1417.160156 571.53125 C 1415.539062 574.398438 1414.050781 577.238281 1412.300781 580.128906 C 1410.710938 582.878906 1409.730469 584.441406 1409.730469 584.46875 C 1387.148438 612.929688 1360.140625 640.609375 1343.460938 671.800781 L 1341.320312 675.800781 C 1341.21875 676.03125 1341.128906 676.230469 1341.019531 676.460938 C 1340.921875 676.570312 1340.78125 676.941406 1340.589844 677.328125 C 1340.238281 678.039062 1339.878906 678.828125 1339.390625 679.910156 C 1337.480469 683.960938 1335.75 688.050781 1334.21875 692.21875 L 1331.460938 701.921875 C 1328.148438 713.800781 1325.441406 728.570312 1325.441406 744.96875 C 1325.46875 772.839844 1333.011719 805.320312 1359.109375 838.378906 C 1359.449219 838.839844 1359.921875 839.460938 1360.429688 840.128906 C 1360.839844 840.558594 1361.058594 840.859375 1361.238281 841.070312 C 1380.300781 864.410156 1409.25 884.539062 1456.398438 892.429688 L 1456.519531 892.46875 L 1456.621094 892.511719 C 1467.101562 894.460938 1477.460938 895.480469 1487.578125 895.578125 L 1488.160156 895.628906 L 1488.738281 895.578125 C 1498.878906 895.480469 1509.191406 894.460938 1519.691406 892.511719 L 1519.890625 892.429688 C 1567.980469 884.351562 1597.210938 863.601562 1616.210938 839.660156 C 1635.191406 815.648438 1643.609375 787.820312 1647.171875 766.320312 L 1647.191406 765.941406 L 1647.328125 765.46875 C 1647.328125 765.46875 1647.328125 765.46875 1647.351562 765.210938 C 1647.429688 764.921875 1647.539062 764.5 1647.640625 763.929688 C 1647.859375 762.71875 1648.171875 760.929688 1648.449219 758.640625 C 1649.078125 754 1649.691406 747.289062 1649.691406 739.191406 C 1649.691406 737.890625 1649.660156 736.441406 1649.660156 734.921875 L 1649.589844 733.621094 C 1649.25 723.511719 1647.800781 711.761719 1644.429688 699.421875 L 1644.019531 698.011719 L 1643.960938 697.808594 C 1640.699219 686.558594 1635.78125 674.949219 1628.429688 663.558594 L 1628.269531 663.558594 L 1624.851562 658.289062 C 1606.769531 629.960938 1581.410156 604.238281 1561.058594 577.449219 C 1557.871094 573.261719 1555.039062 569.039062 1552.089844 564.839844 C 1551 562.941406 1509 490.359375 1512.578125 414.839844 C 1513.101562 406.691406 1513.890625 398.578125 1515.289062 390.480469 C 1520.558594 369.078125 1529.898438 358.410156 1539.410156 353.148438 C 1559.488281 345.011719 1597.71875 362.140625 1597.71875 362.140625 L 1597.71875 362.109375 C 1685.25 403.441406 1746.019531 491.808594 1746.21875 595.039062 L 1746.179688 907.78125 L 1890.078125 838.578125 L 1890.078125 595.039062 C 1890.039062 459.730469 1822.949219 340.441406 1720.480469 267.609375 "/>
<g clip-path="url(#clip-0)">
<g clip-path="url(#clip-1)">
<g clip-path="url(#clip-2)">
<path fill-rule="nonzero" fill="url(#linear-pattern-0)" d="M 1105.878906 874.769531 L 1869.289062 874.769531 L 1869.289062 256.671875 L 1105.878906 256.671875 Z M 1105.878906 874.769531 "/>
</g>
</g>
</g>
<g clip-path="url(#clip-3)">
<g clip-path="url(#clip-4)">
<g clip-path="url(#clip-5)">
<path fill-rule="nonzero" fill="url(#linear-pattern-1)" d="M 341.621094 1326.140625 L 2636.421875 1326.140625 L 2636.421875 998.917969 L 341.621094 998.921875 Z M 341.621094 1326.140625 "/>
</g>
</g>
</g>
</svg>
